<svg width="26" height="23" viewBox="0 0 26 23" fill="none" xmlns="http://www.w3.org/2000/svg">
<path d="M1.375 3.33711V19.7371C1.375 20.2808 1.59098 20.8022 1.97543 21.1867C2.35988 21.5711 2.88131 21.7871 3.425 21.7871H23.925C24.1968 21.7871 24.4576 21.6791 24.6498 21.4869C24.842 21.2947 24.95 21.034 24.95 20.7621V6.41211C24.95 6.14026 24.842 5.87955 24.6498 5.68733C24.4576 5.4951 24.1968 5.38711 23.925 5.38711H3.425C2.88131 5.38711 2.35988 5.17113 1.97543 4.78668C1.59098 4.40223 1.375 3.8808 1.375 3.33711ZM1.375 3.33711C1.375 2.79342 1.59098 2.27199 1.97543 1.88754C2.35988 1.50309 2.88131 1.28711 3.425 1.28711H20.85" stroke="white" stroke-width="2" stroke-linecap="round" stroke-linejoin="round"/>
<path d="M19.3144 15.1238C20.1635 15.1238 20.8519 14.4355 20.8519 13.5863C20.8519 12.7372 20.1635 12.0488 19.3144 12.0488C18.4652 12.0488 17.7769 12.7372 17.7769 13.5863C17.7769 14.4355 18.4652 15.1238 19.3144 15.1238Z" fill="white"/>
</svg>
