<svg width="28" height="27" viewBox="0 0 28 27" fill="none" xmlns="http://www.w3.org/2000/svg">
<path d="M12.5417 17.0017C12.5508 17.0108 12.5963 17.0654 12.5994 17.0654C12.5872 17.0654 12.5387 16.9714 12.566 17.029C12.5781 17.0533 12.5933 17.0806 12.6085 17.1018C12.6479 17.1625 12.5812 17.0472 12.5903 17.0533C12.6145 17.0624 12.6206 17.1655 12.6297 17.1929C12.6509 17.2535 12.6206 17.1382 12.6236 17.1322C12.6145 17.1534 12.6267 17.208 12.6267 17.2353C12.6236 17.384 12.657 17.1564 12.6267 17.2566C12.6176 17.2839 12.6115 17.3112 12.6054 17.3354C12.5994 17.3597 12.566 17.4022 12.6054 17.3415C12.6661 17.2475 12.5508 17.4083 12.5569 17.4174C12.5508 17.4083 12.657 17.3081 12.5721 17.3961C12.5629 17.4052 12.5508 17.4174 12.5417 17.4295C12.4477 17.5266 12.3506 17.6206 12.2535 17.7177C11.8833 18.0879 11.5132 18.458 11.1401 18.8312C11.0945 18.8767 11.049 18.9222 11.0035 18.9677C10.9884 18.9829 10.9732 18.998 10.958 19.0102C10.8791 19.086 11.0369 18.9677 10.9428 19.0193C10.9459 19.0193 10.8731 19.0617 10.87 19.0587C10.8761 19.0617 10.9944 19.0193 10.9004 19.0435C10.8761 19.0496 10.8458 19.0557 10.8215 19.0648C10.7578 19.086 10.776 19.0375 10.8609 19.0617C10.8306 19.0526 10.7729 19.0648 10.7396 19.0648C10.6182 19.0648 10.782 19.0617 10.779 19.0739C10.779 19.0769 10.691 19.0526 10.7001 19.0557C10.6789 19.0496 10.6607 19.0405 10.6425 19.0375C10.5757 19.0193 10.7608 19.1072 10.6546 19.0405C10.6364 19.0284 10.6182 19.0162 10.6 19.0071C10.5424 18.9798 10.6364 19.0284 10.6364 19.0405C10.6364 19.0375 10.5788 18.9889 10.5727 18.9829C10.5697 18.9798 10.5666 18.9768 10.5636 18.9738C10.4301 18.8433 10.2996 18.7098 10.1662 18.5763C9.5017 17.9118 8.8373 17.2474 8.17284 16.583C7.37796 15.7881 6.58002 14.9902 5.78514 14.1953C5.33914 13.7493 4.89316 13.3094 4.45023 12.8604C4.4381 12.8482 4.42596 12.8361 4.41686 12.824C4.41382 12.8179 4.37742 12.7754 4.37438 12.7754C4.38955 12.7724 4.4472 12.8938 4.39562 12.7936C4.38652 12.7754 4.37742 12.7542 4.36528 12.739C4.31977 12.6723 4.39562 12.8452 4.37742 12.7694C4.36831 12.739 4.35921 12.6541 4.34101 12.6298C4.34404 12.6359 4.34708 12.7542 4.35011 12.6905V12.5873C4.34708 12.4842 4.31977 12.7117 4.35618 12.5661C4.36225 12.5449 4.36831 12.5266 4.37438 12.5054C4.39562 12.4235 4.39865 12.5175 4.35921 12.5358C4.37135 12.5297 4.44719 12.3658 4.40169 12.4538C4.36528 12.5206 4.41989 12.4356 4.44113 12.4144C4.47147 12.384 4.50181 12.3537 4.52911 12.3264C4.89015 11.9654 5.25121 11.6043 5.6122 11.2433L5.97627 10.8792C5.99144 10.8641 6.00661 10.8489 6.02178 10.8368C6.08853 10.7731 6.02178 10.8641 6.00055 10.8519C6.00358 10.855 6.04909 10.8216 6.05516 10.8186C6.06426 10.8125 6.10673 10.7973 6.10977 10.7882C6.03392 10.8186 6.01875 10.8246 6.06122 10.8095C6.07336 10.8034 6.08853 10.8004 6.10067 10.7973C6.12797 10.7882 6.15528 10.7852 6.17955 10.7761C6.24629 10.7549 6.11887 10.7913 6.11887 10.7822C6.11887 10.7761 6.24326 10.7822 6.26146 10.7822C6.32517 10.7791 6.20685 10.7761 6.20078 10.7731C6.21292 10.7822 6.26146 10.7852 6.27966 10.7913C6.29787 10.7973 6.34641 10.8186 6.35855 10.8155C6.32821 10.8216 6.25539 10.7609 6.32821 10.8064C6.33731 10.8125 6.40102 10.8519 6.40102 10.8519C6.39496 10.855 6.31608 10.7731 6.36462 10.8216C6.37979 10.8368 6.40102 10.855 6.41316 10.8671C6.41619 10.8701 6.41923 10.8732 6.42226 10.8762C6.43743 10.8914 6.4526 10.9066 6.46777 10.9217C6.53451 10.9885 6.60126 11.0552 6.66801 11.122C7.28692 11.7409 7.90283 12.3568 8.52174 12.9757C9.32878 13.7827 10.1328 14.5867 10.9398 15.3937C11.4525 15.9065 11.9652 16.4192 12.478 16.932C12.4902 16.9502 12.5174 16.9744 12.5417 17.0017C12.7662 17.2262 13.1788 17.2445 13.4004 17.0018C13.6219 16.759 13.64 16.3828 13.4004 16.1431C13.006 15.7487 12.6115 15.3543 12.2141 14.9568C11.3949 14.1377 10.5727 13.3155 9.75354 12.4963C9.05574 11.7985 8.36093 11.1037 7.66314 10.4059C7.52965 10.2724 7.39615 10.1359 7.26265 10.0054C6.94712 9.69899 6.50721 9.51999 6.06728 9.56549C5.66679 9.60797 5.33608 9.78394 5.05392 10.0661C4.68378 10.4362 4.31363 10.8064 3.94653 11.1735C3.82517 11.2948 3.70078 11.4162 3.57942 11.5406C3.21232 11.9198 3.06365 12.4265 3.16377 12.9453C3.23962 13.3397 3.4975 13.6158 3.76754 13.8858L9.66537 19.7836C10.26 20.3783 11.1611 20.4298 11.8043 19.8747C12.1289 19.5925 12.4202 19.2618 12.7236 18.9584C13.0968 18.5852 13.564 18.2181 13.7581 17.7114C13.9675 17.1683 13.7945 16.5494 13.4032 16.1398C13.1847 15.9093 12.763 15.9032 12.5445 16.1398C12.314 16.3886 12.3081 16.756 12.5417 17.0017Z" fill="white"/>
<path d="M21.4882 8.05457C21.4973 8.06368 21.5429 8.11829 21.5459 8.11829C21.5338 8.11829 21.4852 8.02423 21.5125 8.08188C21.5246 8.10615 21.5398 8.13346 21.555 8.15469C21.5944 8.21537 21.5277 8.10008 21.5368 8.10615C21.5611 8.11525 21.5671 8.2184 21.5762 8.24571C21.5975 8.30639 21.5671 8.1911 21.5702 8.18503C21.5611 8.20627 21.5732 8.26088 21.5732 8.28818C21.5702 8.43685 21.6035 8.2093 21.5732 8.30942C21.5641 8.33673 21.558 8.36403 21.552 8.3883C21.5459 8.41258 21.5125 8.45505 21.552 8.39437C21.6126 8.30032 21.4973 8.46112 21.5034 8.47022C21.4973 8.46112 21.6035 8.361 21.5186 8.44898C21.5095 8.45809 21.4973 8.47022 21.4882 8.48236C21.3942 8.57944 21.2971 8.67349 21.2 8.77058C20.8299 9.14072 20.4597 9.51088 20.0866 9.88402C20.0411 9.92953 19.9956 9.97503 19.9501 10.0205C19.9349 10.0357 19.9197 10.0509 19.9045 10.063C19.8257 10.1389 19.9834 10.0205 19.8894 10.0721C19.8924 10.0721 19.8196 10.1146 19.8166 10.1116C19.8226 10.1146 19.941 10.0721 19.8469 10.0964C19.8226 10.1025 19.7923 10.1085 19.768 10.1176C19.7043 10.1389 19.7225 10.0903 19.8075 10.1146C19.7771 10.1055 19.7195 10.1176 19.6861 10.1176C19.5647 10.1176 19.7286 10.1146 19.7255 10.1267C19.7255 10.1298 19.6376 10.1055 19.6467 10.1085C19.6254 10.1025 19.6072 10.0934 19.589 10.0903C19.5223 10.0721 19.7073 10.1601 19.6011 10.0934C19.5829 10.0812 19.5647 10.0691 19.5465 10.06C19.4889 10.0327 19.5829 10.0812 19.5829 10.0934C19.5829 10.0903 19.5253 10.0418 19.5192 10.0357C19.5162 10.0327 19.5132 10.0296 19.5101 10.0266C19.3766 9.89615 19.2462 9.76266 19.1127 9.62916C18.4482 8.96471 17.7838 8.3003 17.1194 7.63585C16.3245 6.84096 15.5266 6.04303 14.7317 5.24814C14.2857 4.80215 13.8397 4.36222 13.3968 3.91324C13.3846 3.9011 13.3725 3.88897 13.3634 3.87683C13.3604 3.87076 13.3239 3.82829 13.3209 3.82829C13.3361 3.82525 13.3937 3.94661 13.3422 3.84649C13.333 3.82829 13.3239 3.80705 13.3118 3.79188C13.2663 3.72513 13.3422 3.89807 13.3239 3.82222C13.3148 3.79188 13.3057 3.70693 13.2875 3.68266C13.2906 3.68873 13.2936 3.80705 13.2966 3.74334V3.64019C13.2936 3.53703 13.2663 3.76458 13.3027 3.61895C13.3088 3.59771 13.3148 3.57951 13.3209 3.55827C13.3422 3.47635 13.3452 3.5704 13.3057 3.58861C13.3179 3.58254 13.3937 3.41871 13.3482 3.50669C13.3118 3.57343 13.3664 3.48848 13.3877 3.46725C13.418 3.43691 13.4483 3.40657 13.4756 3.37926C13.8367 3.01823 14.1977 2.65717 14.5587 2.29617L14.9228 1.9321C14.938 1.91693 14.9531 1.90176 14.9683 1.88963C15.0351 1.82592 14.9683 1.91693 14.9471 1.9048C14.9501 1.90783 14.9956 1.87446 15.0017 1.87142C15.0108 1.86536 15.0533 1.85019 15.0563 1.84108C14.9805 1.87142 14.9653 1.87749 15.0078 1.86232C15.0199 1.85625 15.0351 1.85322 15.0472 1.85019C15.0745 1.84108 15.1018 1.83805 15.1261 1.82895C15.1928 1.80771 15.0654 1.84412 15.0654 1.83502C15.0654 1.82895 15.1898 1.83502 15.208 1.83502C15.2717 1.83198 15.1534 1.82895 15.1473 1.82591C15.1594 1.83502 15.208 1.83805 15.2262 1.84412C15.2444 1.85018 15.2929 1.87142 15.3051 1.86839C15.2747 1.87446 15.2019 1.81378 15.2747 1.85929C15.2838 1.86536 15.3476 1.9048 15.3476 1.9048C15.3415 1.90783 15.2626 1.82591 15.3111 1.87446C15.3263 1.88963 15.3476 1.90783 15.3597 1.91997C15.3627 1.923 15.3658 1.92603 15.3688 1.92907C15.384 1.94424 15.3991 1.95941 15.4143 1.97458C15.481 2.04132 15.5478 2.10807 15.6145 2.17482C16.2335 2.79373 16.8494 3.40964 17.4683 4.02855C18.2753 4.83558 19.0793 5.63957 19.8863 6.4466C20.3991 6.95934 20.9118 7.47205 21.4246 7.98483C21.4367 8.00304 21.461 8.02731 21.4883 8.05461C21.7128 8.27912 22.1254 8.29733 22.3469 8.05461C22.5684 7.8119 22.5866 7.4357 22.3469 7.19598C21.9525 6.80157 21.5581 6.40715 21.1606 6.0097C20.3414 5.19052 19.5193 4.36834 18.7001 3.54916C18.0023 2.85136 17.3075 2.15655 16.6097 1.45876C16.4762 1.32526 16.3427 1.18873 16.2092 1.05827C15.8937 0.751847 15.4537 0.572843 15.0138 0.618351C14.6133 0.660826 14.2826 0.836794 14.0005 1.11895C13.6303 1.48909 13.2602 1.85924 12.8931 2.22634C12.7717 2.3477 12.6473 2.46905 12.526 2.59345C12.1588 2.97269 12.0102 3.47937 12.1103 3.99814C12.1862 4.39255 12.444 4.66865 12.7141 4.93866C12.9598 5.1844 13.2086 5.43319 13.4544 5.67895C14.2523 6.47689 15.0502 7.27482 15.8451 8.06971C16.5884 8.813 17.3318 9.55634 18.075 10.2996C18.2541 10.4786 18.4331 10.6576 18.6121 10.8366C19.2067 11.4313 20.1078 11.4828 20.751 10.9277C21.0756 10.6455 21.3669 10.3148 21.6703 10.0114C22.0434 9.63821 22.5106 9.27109 22.7048 8.76442C22.9142 8.22134 22.7412 7.60243 22.3498 7.19284C22.1314 6.96227 21.7097 6.9562 21.4912 7.19284C21.2606 7.44466 21.2546 7.80876 21.4882 8.05447L21.4882 8.05457Z" fill="white"/>
<path d="M17.9883 9.35782C17.2176 10.1285 16.4501 10.8961 15.6795 11.6666C14.9058 12.4403 14.1321 13.214 13.3616 13.9846C12.867 14.4791 12.3694 14.9767 11.8749 15.4712H12.7335L7.92473 10.6624V11.521C8.61344 10.8323 9.30214 10.1436 9.99084 9.45491C11.0891 8.35662 12.1874 7.25833 13.2827 6.16309C13.5345 5.91127 13.7863 5.65945 14.0381 5.40765H13.1795L17.9883 10.2165C18.2128 10.441 18.6254 10.4592 18.8469 10.2165C19.0684 9.97374 19.0866 9.59754 18.8469 9.35782C18.3069 8.81778 17.7668 8.27773 17.2237 7.73466C16.3621 6.87303 15.5005 6.01141 14.6358 5.14673C14.4356 4.94649 14.2384 4.74929 14.0382 4.54907C13.8076 4.3185 13.4131 4.31546 13.1795 4.54907C12.4908 5.23777 11.8021 5.92647 11.1134 6.61517C10.0151 7.71346 8.91684 8.81176 7.8216 9.907C7.56978 10.1588 7.31797 10.4106 7.06616 10.6624C6.83559 10.893 6.83255 11.2875 7.06616 11.5211C7.6062 12.0611 8.14626 12.6012 8.68933 13.1442C9.55095 14.0059 10.4126 14.8675 11.2773 15.7322C11.4775 15.9324 11.6747 16.1296 11.8749 16.3298C12.1055 16.5604 12.4999 16.5634 12.7335 16.3298L14.9544 14.109C15.7736 13.2898 16.5927 12.4707 17.4149 11.6484C17.8943 11.1691 18.3706 10.6927 18.85 10.2134C19.0745 9.98889 19.0927 9.5763 18.85 9.35477C18.6042 9.13633 18.228 9.11813 17.9883 9.35781L17.9883 9.35782Z" fill="white"/>
<path d="M25.7515 23.4757C25.7242 23.5 25.6969 23.5243 25.6696 23.5516C25.6089 23.6092 25.7606 23.497 25.6878 23.5364C25.6575 23.5546 25.5422 23.6001 25.5209 23.6305C25.5513 23.5849 25.6211 23.594 25.5482 23.6153C25.5209 23.6244 25.4967 23.6335 25.4694 23.6396C25.436 23.6487 25.4026 23.6547 25.3662 23.6638C25.3207 23.6729 25.3389 23.6699 25.4238 23.6578C25.4026 23.6608 25.3814 23.6608 25.3601 23.6608C25.3419 23.6608 25.1781 23.6699 25.172 23.6578C25.169 23.6517 25.3298 23.6911 25.2084 23.6608C25.1811 23.6547 25.1538 23.6487 25.1265 23.6426C25.0992 23.6365 25.0719 23.6244 25.0476 23.6183C24.9172 23.5819 25.1296 23.6669 25.0567 23.6244C25.0325 23.6092 25.0052 23.6001 24.9809 23.5849C24.9657 23.5758 24.8383 23.503 24.9172 23.5485C24.987 23.591 24.8686 23.503 24.8444 23.4788C24.8413 23.4757 24.8353 23.4697 24.8322 23.4666C24.814 23.4484 24.7989 23.4332 24.7807 23.415L24.2345 22.8689C23.4669 22.1013 22.6994 21.3338 21.9288 20.5632C20.9185 19.5438 19.9021 18.5244 18.8827 17.508L16.1583 14.7836C15.7092 14.3345 15.2754 13.8673 14.8082 13.4335L14.79 13.4152V14.2739C15.3755 13.6883 15.9641 13.0997 16.5496 12.5142H15.691C16.0612 12.8843 16.4313 13.2545 16.8015 13.6246C17.6722 14.4953 18.543 15.3661 19.4167 16.2399C20.4392 17.2624 21.4646 18.2878 22.4871 19.3103C23.3032 20.1264 24.1194 20.9425 24.9355 21.7587C25.157 21.9801 25.3784 22.2016 25.6029 22.4261C25.6485 22.4716 25.694 22.5171 25.7395 22.5626C25.7425 22.5657 25.7455 22.5687 25.7486 22.5717L25.7516 22.5748C25.7607 22.5869 25.7334 22.5535 25.7819 22.6081C25.7971 22.6233 25.8123 22.6415 25.8244 22.6567C25.8517 22.6901 25.8426 22.6779 25.7971 22.6203C25.7941 22.6263 25.876 22.7538 25.8851 22.7659C25.9549 22.8812 25.8578 22.6749 25.8821 22.7568C25.8912 22.7902 25.9033 22.8235 25.9154 22.8569C25.9215 22.8842 25.9276 22.9115 25.9336 22.9388C25.9488 23.0026 25.9124 22.9874 25.9306 22.9024C25.9185 22.9631 25.9367 23.0481 25.9336 23.1087C25.9306 23.2331 25.9367 23.0693 25.9397 23.0723C25.9458 23.0784 25.9215 23.1634 25.9185 23.1755C25.9124 23.2028 25.9033 23.2301 25.8942 23.2574C25.8669 23.3454 25.9124 23.3151 25.9003 23.2483C25.9063 23.2877 25.8366 23.3636 25.8183 23.397C25.7668 23.491 25.8305 23.3939 25.8366 23.3788C25.8244 23.4121 25.7789 23.4485 25.7516 23.4759C25.5301 23.7034 25.5059 24.11 25.7516 24.3345C25.9913 24.5529 26.3736 24.5772 26.6102 24.3345C27.3323 23.5881 27.308 22.4201 26.5799 21.6889C26.4191 21.5281 26.2583 21.3673 26.0975 21.2065L20.7456 15.8546C19.8173 14.9262 18.8888 13.9978 17.9635 13.0725C17.4993 12.6083 17.0443 12.132 16.5679 11.6769C16.5619 11.6708 16.5558 11.6648 16.5497 11.6587C16.3191 11.4281 15.9247 11.4251 15.6911 11.6587C15.1055 12.2443 14.517 12.8328 13.9314 13.4184C13.7008 13.649 13.6978 14.0434 13.9314 14.277C14.3137 14.6593 14.6959 15.0416 15.0782 15.4239C15.9702 16.3158 16.8592 17.2048 17.7511 18.0968C18.7918 19.1374 19.8294 20.175 20.87 21.2157C21.6771 22.0227 22.4811 22.8267 23.2881 23.6337C23.4914 23.837 23.6977 24.0433 23.901 24.2466C23.9313 24.2769 23.9616 24.3103 23.995 24.3406C24.4622 24.7957 25.1206 24.9777 25.7547 24.8261C26.0793 24.7502 26.3736 24.5712 26.6133 24.3406C26.8409 24.1192 26.853 23.7005 26.6133 23.482C26.3646 23.2514 25.9974 23.2393 25.7517 23.4759L25.7515 23.4757Z" fill="white"/>
<path d="M14.9293 25.3939H13.1545H9.10117H4.58062H1.44657H1.09463C1.04002 25.3939 0.888323 25.3696 1.05823 25.406C1.00968 25.3969 0.991482 25.3635 1.09767 25.4242C1.20386 25.4849 1.16745 25.4849 1.13408 25.4485C1.15228 25.4697 1.16745 25.4909 1.18565 25.5122C1.21903 25.6002 1.22509 25.6153 1.20386 25.5516C1.20386 25.5546 1.21599 25.6335 1.21599 25.6335C1.22509 25.6153 1.21599 25.5698 1.21599 25.5486V25.1147V24.1226C1.21599 24.1105 1.22206 24.068 1.21599 24.0589C1.22509 24.071 1.17958 24.2076 1.21296 24.1044C1.19475 24.1651 1.17352 24.1985 1.13104 24.244C1.20385 24.1651 1.07643 24.2683 1.05519 24.2834C1.00361 24.3016 1.00361 24.3047 1.05519 24.2895C0.970243 24.2986 0.942936 24.3016 0.973272 24.3016C0.97934 24.3047 1.00058 24.3016 1.00664 24.3016C1.08856 24.3077 1.17048 24.3016 1.25239 24.3016H2.36583H6.23712H10.8153H14.2073C14.4348 24.3016 14.6715 24.3198 14.899 24.3016C14.9385 24.2986 14.9809 24.3168 14.8444 24.2895C14.9506 24.3107 14.7989 24.2561 14.7746 24.244C14.7655 24.2349 14.7534 24.2258 14.7443 24.2197C14.7898 24.2652 14.7807 24.2531 14.72 24.1833C14.7109 24.1681 14.6775 24.0468 14.7018 24.1439C14.6988 24.1166 14.6927 24.0893 14.6897 24.0589C14.6806 24.0711 14.6897 24.1287 14.6897 24.1439V25.1724V25.5637C14.6897 25.5759 14.6806 25.6244 14.6897 25.6335C14.6866 25.6275 14.714 25.5061 14.6988 25.5698C14.6836 25.6214 14.7625 25.4606 14.7746 25.4485C14.7079 25.5213 14.7959 25.4333 14.811 25.4242C14.8353 25.4151 14.8626 25.4029 14.8869 25.3938C14.8171 25.4151 14.8323 25.412 14.9294 25.3938C14.6138 25.412 14.3074 25.6608 14.3225 26.0007C14.3377 26.3162 14.5895 26.6257 14.9294 26.6075C15.4482 26.5802 15.8668 26.207 15.8972 25.6761C15.9032 25.585 15.9002 25.494 15.9002 25.4V24.3169C15.9002 24.2319 15.9032 24.1439 15.9002 24.059C15.882 23.5402 15.4937 23.1185 14.9688 23.0912C14.9142 23.0882 14.8596 23.0882 14.805 23.0882H12.1806H7.65094H3.26083C2.51143 23.0882 1.75904 23.079 1.0066 23.0882C0.466557 23.0942 0.0296929 23.4917 0.00539367 24.0378C-0.00674208 24.3078 0.00539367 24.5778 0.00539367 24.8478C0.00539367 25.1179 -0.00674208 25.3879 0.00539367 25.6579C0.0296652 26.204 0.466552 26.6015 1.0066 26.6075C1.75599 26.6166 2.50838 26.6075 3.26083 26.6075H7.65094H12.1806H14.805H14.9294C15.2479 26.6075 15.5513 26.3284 15.5362 26.0007C15.521 25.673 15.2692 25.3939 14.9294 25.3939L14.9293 25.3939Z" fill="white"/>
</svg>
