<svg width="27" height="26" viewBox="0 0 27 26" fill="none" xmlns="http://www.w3.org/2000/svg">
<path d="M10.1332 9.69471V5.10625C10.1329 4.78498 10.0041 4.47696 9.77494 4.24988C9.5458 4.0228 9.23512 3.89524 8.91118 3.89524H5.50666C5.18273 3.89524 4.87205 4.0228 4.6429 4.24988C4.41376 4.47696 4.2849 4.78498 4.28465 5.10625V8.48275C4.28465 8.64191 4.31626 8.79951 4.37767 8.94655C4.43908 9.09359 4.52909 9.22719 4.64257 9.33973C4.75604 9.45227 4.89076 9.54155 5.03902 9.60245C5.18728 9.66336 5.34618 9.69471 5.50666 9.69471H10.1332ZM5.50666 1.47132H8.91118C9.88323 1.47132 10.8155 1.85429 11.5028 2.53597C12.1901 3.21765 12.5763 4.14221 12.5763 5.10625V10.9067C12.5763 11.2281 12.4475 11.5364 12.2184 11.7636C11.9892 11.9909 11.6784 12.1186 11.3543 12.1186H5.50666C4.53462 12.1186 3.60239 11.7357 2.91505 11.054C2.22771 10.3723 1.84157 9.44774 1.84157 8.48369V5.10625C1.84157 4.14221 2.22771 3.21765 2.91505 2.53597C3.60239 1.85429 4.53462 1.47132 5.50666 1.47132ZM16.9974 3.64058V9.69942H23.1065C23.4306 9.69942 23.7414 9.57174 23.9706 9.34445C24.1998 9.11716 24.3285 8.8089 24.3285 8.48747V3.63587C24.3285 3.31444 24.1998 3.00617 23.9706 2.77889C23.7414 2.5516 23.4306 2.42391 23.1065 2.42391H18.2213C18.0607 2.42366 17.9016 2.45483 17.7531 2.51563C17.6046 2.57642 17.4697 2.66565 17.356 2.77822C17.2423 2.89078 17.1521 3.02447 17.0906 3.17164C17.0291 3.3188 16.9974 3.47655 16.9974 3.63587V3.64058ZM23.1065 4.89361e-07C23.5878 4.89361e-07 24.0644 0.0940207 24.5091 0.276693C24.9538 0.459365 25.3578 0.727111 25.6981 1.06465C26.0385 1.40218 26.3084 1.80289 26.4926 2.2439C26.6768 2.68491 26.7716 3.15758 26.7716 3.63493V8.48181C26.7716 9.44585 26.3855 10.3704 25.6981 11.0521C25.0108 11.7338 24.0786 12.1167 23.1065 12.1167H15.7754C15.4513 12.1167 15.1405 11.989 14.9113 11.7618C14.6821 11.5345 14.5534 11.2262 14.5534 10.9048V3.63587C14.5534 3.15824 14.6483 2.68529 14.8326 2.24405C15.017 1.8028 15.2872 1.4019 15.6278 1.06425C15.9684 0.726608 16.3728 0.458831 16.8178 0.276223C17.2628 0.0936143 17.7397 -0.000247307 18.2213 4.89361e-07H23.1065ZM16.9974 16.3062V20.9004C16.9974 21.0597 17.0291 21.2174 17.0906 21.3646C17.1521 21.5117 17.2423 21.6454 17.356 21.758C17.4697 21.8706 17.6046 21.9598 17.7531 22.0206C17.9016 22.0814 18.0607 22.1126 18.2213 22.1123H21.6325C21.9566 22.1123 22.2674 21.9846 22.4966 21.7573C22.7258 21.53 22.8545 21.2218 22.8545 20.9004V17.5173C22.8545 17.1958 22.7258 16.8876 22.4966 16.6603C22.2674 16.433 21.9566 16.3053 21.6325 16.3053L16.9974 16.3062ZM21.6306 24.5362H18.2213C17.2493 24.536 16.3173 24.1529 15.63 23.4713C14.9427 22.7897 14.5565 21.8653 14.5562 20.9013V15.0943C14.5562 14.7728 14.685 14.4646 14.9141 14.2373C15.1433 14.01 15.4541 13.8823 15.7782 13.8823H21.6325C22.6045 13.8826 23.5365 14.2656 24.2238 14.9472C24.9111 15.6289 25.2973 16.5533 25.2976 17.5173V20.9004C25.2976 21.3779 25.2027 21.8508 25.0184 22.292C24.8341 22.7331 24.564 23.134 24.2235 23.4716C23.883 23.8093 23.4787 24.0771 23.0338 24.2597C22.5889 24.4424 22.1121 24.5363 21.6306 24.5362ZM10.1551 16.3062H4.04595C3.72185 16.3062 3.41103 16.4339 3.18186 16.6612C2.95268 16.8885 2.82394 17.1968 2.82394 17.5182V22.3651C2.82394 22.6865 2.95268 22.9948 3.18186 23.2221C3.41103 23.4493 3.72185 23.577 4.04595 23.577H8.93306C9.25715 23.577 9.56798 23.4493 9.79715 23.2221C10.0263 22.9948 10.1551 22.6865 10.1551 22.3651V16.3062ZM4.04595 26C3.07391 26 2.14168 25.617 1.45434 24.9354C0.767002 24.2537 0.380859 23.3291 0.380859 22.3651V17.5173C0.381111 16.5533 0.767335 15.6289 1.45462 14.9472C2.1419 14.2656 3.07399 13.8826 4.04595 13.8823H11.3742C11.6983 13.8823 12.0092 14.01 12.2383 14.2373C12.4675 14.4646 12.5962 14.7728 12.5962 15.0943V22.3651C12.5962 22.8425 12.5014 23.3152 12.3172 23.7563C12.1329 24.1974 11.8629 24.5981 11.5224 24.9357C11.182 25.2732 10.7778 25.541 10.3331 25.7236C9.88829 25.9062 9.41159 26.0001 8.9302 26H4.04595Z" fill="white"/>
</svg>
