<svg width="27" height="21" viewBox="0 0 27 21" fill="none" xmlns="http://www.w3.org/2000/svg">
<path d="M9.74414 13.2051C10.469 13.2051 11.0566 12.6175 11.0566 11.8926C11.0566 11.1677 10.469 10.5801 9.74414 10.5801C9.01927 10.5801 8.43164 11.1677 8.43164 11.8926C8.43164 12.6175 9.01927 13.2051 9.74414 13.2051Z" fill="white"/>
<path d="M16.7441 13.2051C17.469 13.2051 18.0566 12.6175 18.0566 11.8926C18.0566 11.1677 17.469 10.5801 16.7441 10.5801C16.0193 10.5801 15.4316 11.1677 15.4316 11.8926C15.4316 12.6175 16.0193 13.2051 16.7441 13.2051Z" fill="white"/>
<path d="M7.38086 4.89261C9.2777 4.29812 11.2556 4.00291 13.2434 4.01761C15.2311 4.00291 17.209 4.29812 19.1059 4.89261" stroke="white" stroke-width="2" stroke-linecap="round" stroke-linejoin="round"/>
<path d="M19.1059 15.3926C17.209 15.9871 15.2311 16.2823 13.2434 16.2676C11.2556 16.2823 9.2777 15.9871 7.38086 15.3926" stroke="white" stroke-width="2" stroke-linecap="round" stroke-linejoin="round"/>
<path d="M16.198 16.0596L17.5215 18.6846C17.6066 18.8636 17.7515 19.0074 17.9311 19.0912C18.1107 19.175 18.314 19.1937 18.5059 19.144C21.1855 18.4877 23.5043 17.3502 25.1887 15.8846C25.3157 15.7725 25.4079 15.6265 25.4544 15.4636C25.5009 15.3008 25.4998 15.128 25.4512 14.9658L21.7434 2.58458C21.7073 2.45787 21.642 2.3414 21.5527 2.24452C21.4634 2.14764 21.3526 2.07305 21.2293 2.02676C20.1817 1.597 19.0984 1.26028 17.9918 1.02051C17.7791 0.97394 17.5568 1.0073 17.3671 1.11422C17.1775 1.22114 17.0339 1.39414 16.9637 1.6002L16.0996 4.21426" stroke="white" stroke-width="2" stroke-linecap="round" stroke-linejoin="round"/>
<path d="M10.2904 16.0596L8.967 18.6846C8.88185 18.8636 8.73701 19.0074 8.55738 19.0912C8.37774 19.175 8.17452 19.1937 7.98263 19.144C5.30294 18.4877 2.98419 17.3502 1.29982 15.8846C1.17283 15.7725 1.08061 15.6265 1.03409 15.4636C0.987564 15.3008 0.988685 15.128 1.03732 14.9658L4.74513 2.58458C4.78121 2.45787 4.84652 2.3414 4.9358 2.24452C5.02508 2.14764 5.13585 2.07305 5.25919 2.02676C6.30674 1.597 7.39009 1.26028 8.49669 1.02051C8.70935 0.97394 8.93171 1.0073 9.12134 1.11422C9.31097 1.22114 9.4546 1.39414 9.52482 1.6002L10.3889 4.21426" stroke="white" stroke-width="2" stroke-linecap="round" stroke-linejoin="round"/>
</svg>
