<svg width="23" height="27" viewBox="0 0 23 27" fill="none" xmlns="http://www.w3.org/2000/svg">
<path d="M9.4707 3.0301C9.4707 1.53578 12.499 0.324219 16.2354 0.324219C19.9712 0.324219 23.0001 1.53578 23.0001 3.0301C23.0001 4.52442 19.9712 5.73598 16.2354 5.73598C12.499 5.73598 9.4707 4.52442 9.4707 3.0301ZM16.2354 19.2654C15.7717 19.2654 15.3198 19.2468 14.8825 19.2112V21.9171C15.3198 21.9527 15.7717 21.9713 16.2354 21.9713C19.9712 21.9713 23.0001 20.7597 23.0001 19.2654V16.5595C23.0001 18.0538 19.9712 19.2654 16.2354 19.2654ZM16.2354 11.1477C15.7703 11.1477 15.3157 11.1288 14.8771 11.0929C14.8771 11.1115 14.8825 11.1291 14.8825 11.1477V13.7994C15.3198 13.835 15.7717 13.8536 16.2354 13.8536C19.9712 13.8536 23.0001 12.6421 23.0001 11.1477V8.44186C23.0001 9.93618 19.9712 11.1477 16.2354 11.1477L16.2354 11.1477ZM16.2354 7.08892C12.499 7.08892 9.4707 5.87736 9.4707 4.38304V7.08892C9.4707 7.1704 9.48359 7.25088 9.50109 7.33038C11.7162 7.72752 13.4821 8.58996 14.3294 9.68415C14.9345 9.75528 15.5728 9.79481 16.2354 9.79481C19.9712 9.79481 23.0001 8.58325 23.0001 7.08893V4.38305C23.0001 5.87737 19.9712 7.08893 16.2354 7.08893L16.2354 7.08892ZM16.2354 15.2066C15.7717 15.2066 15.3198 15.188 14.8825 15.1524V17.8583C15.3198 17.8938 15.7717 17.9124 16.2354 17.9124C19.9712 17.9124 23.0001 16.7009 23.0001 15.2066V12.5007C23.0001 13.995 19.9712 15.2066 16.2354 15.2066Z" fill="white"/>
<path d="M13.5294 11.1473C13.5294 12.6416 10.5005 13.8532 6.7647 13.8532C3.02861 13.8532 0 12.6416 0 11.1473C0 9.65296 3.02861 8.44141 6.7647 8.44141C10.5005 8.44141 13.5294 9.65296 13.5294 11.1473ZM6.7647 15.2061C3.02861 15.2061 0 13.9946 0 12.5002V15.2061C0 16.7004 3.02861 17.912 6.7647 17.912C10.5005 17.912 13.5294 16.7004 13.5294 15.2061V12.5002C13.5294 13.9946 10.5005 15.2061 6.7647 15.2061ZM6.7647 19.2649C3.02861 19.2649 0 18.0534 0 16.559V19.2649C0 20.7593 3.02861 21.9708 6.7647 21.9708C10.5005 21.9708 13.5294 20.7593 13.5294 19.2649V16.559C13.5294 18.0534 10.5005 19.2649 6.7647 19.2649ZM6.7647 23.3238C3.02861 23.3238 0 22.1122 0 20.6179V23.3238C0 24.8181 3.02861 26.0296 6.7647 26.0296C10.5005 26.0296 13.5294 24.8181 13.5294 23.3238V20.6179C13.5294 22.1122 10.5005 23.3238 6.7647 23.3238Z" fill="white"/>
</svg>
