<svg width="22" height="24" viewBox="0 0 22 24" fill="none" xmlns="http://www.w3.org/2000/svg">
<path d="M5.8125 22.875C6.15763 22.8764 6.49962 22.8095 6.81875 22.6781C7.13789 22.5467 7.42784 22.3534 7.67188 22.1094C7.91592 21.8653 8.10923 21.5754 8.24063 21.2563C8.37204 20.9371 8.43895 20.5951 8.4375 20.25V15" stroke="white" stroke-width="2" stroke-linecap="round" stroke-linejoin="round"/>
<path d="M15.4375 22.875C15.0924 22.8764 14.7504 22.8095 14.4313 22.6781C14.1121 22.5467 13.8222 22.3534 13.5781 22.1094C13.3341 21.8653 13.1408 21.5754 13.0094 21.2563C12.878 20.9371 12.8111 20.5951 12.8125 20.25V15" stroke="white" stroke-width="2" stroke-linecap="round" stroke-linejoin="round"/>
<path d="M13.25 15H15C15.3451 14.9986 15.6871 15.0655 16.0063 15.1969C16.3254 15.3283 16.6153 15.5216 16.8594 15.7656C17.1034 16.0097 17.2967 16.2996 17.4281 16.6188C17.5595 16.9379 17.6264 17.2799 17.625 17.625V18.5C17.6236 18.8451 17.6905 19.1871 17.8219 19.5063C17.9533 19.8254 18.1466 20.1154 18.3906 20.3594C18.6347 20.6034 18.9246 20.7967 19.2437 20.9282C19.5629 21.0596 19.9049 21.1265 20.25 21.125" stroke="white" stroke-width="2" stroke-linecap="round" stroke-linejoin="round"/>
<path d="M8 15H6.25C5.90487 14.9986 5.56288 15.0655 5.24375 15.1969C4.92461 15.3283 4.63466 15.5216 4.39062 15.7656C4.14658 16.0097 3.95327 16.2996 3.82187 16.6188C3.69046 16.9379 3.62355 17.2799 3.625 17.625V18.5C3.62645 18.8451 3.55954 19.1871 3.42813 19.5063C3.29673 19.8254 3.10342 20.1154 2.85938 20.3594C2.61534 20.6034 2.32539 20.7967 2.00625 20.9282C1.68712 21.0596 1.34513 21.1265 1 21.125" stroke="white" stroke-width="2" stroke-linecap="round" stroke-linejoin="round"/>
<path d="M8.85313 3.625C8.33908 2.82056 7.63081 2.15845 6.79359 1.6997C5.95638 1.24095 5.01716 1.00033 4.0625 1C3.63802 1.73476 3.38332 2.55518 3.31708 3.40115C3.25084 4.24712 3.37474 5.09719 3.67969 5.88906C3.08163 6.77068 2.75813 7.8097 2.75 8.875V9.75C2.75 11.1424 3.30312 12.4777 4.28769 13.4623C5.27226 14.4469 6.60761 15 8 15H13.25C14.6424 15 15.9777 14.4469 16.9623 13.4623C17.9469 12.4777 18.5 11.1424 18.5 9.75V8.875C18.4919 7.8097 18.1684 6.77068 17.5703 5.88906C17.8753 5.09719 17.9992 4.24712 17.9329 3.40115C17.8667 2.55518 17.612 1.73476 17.1875 1C16.2328 1.00033 15.2936 1.24095 14.4564 1.6997C13.6192 2.15845 12.9109 2.82056 12.3969 3.625H8.85313Z" stroke="white" stroke-width="2" stroke-linecap="round" stroke-linejoin="round"/>
</svg>
