<svg width="30" height="27" viewBox="0 0 30 27" fill="none" xmlns="http://www.w3.org/2000/svg">
<path d="M18.1029 26.2871C17.9544 26.2872 17.8073 26.2581 17.67 26.2013C17.5327 26.1446 17.4079 26.0613 17.3029 25.9563C17.1978 25.8513 17.1144 25.7266 17.0575 25.5894C17.0006 25.4522 16.9714 25.3051 16.9714 25.1565V17.2473H12.449V25.1614C12.4479 25.4605 12.3283 25.747 12.1164 25.958C11.9044 26.169 11.6175 26.2874 11.3184 26.2871H4.53481C4.38639 26.2871 4.23942 26.2579 4.1023 26.201C3.96519 26.1442 3.84062 26.0609 3.73571 25.9559C3.6308 25.8509 3.54762 25.7263 3.49091 25.5891C3.43419 25.4519 3.40507 25.3049 3.4052 25.1565V11.3107L1.8206 12.4994C1.70199 12.5907 1.56641 12.6576 1.42173 12.6962C1.27705 12.7348 1.12615 12.7442 0.977801 12.724C0.829447 12.7037 0.68659 12.6542 0.557522 12.5783C0.428455 12.5024 0.315747 12.4017 0.225942 12.2819C0.136137 12.1621 0.0710229 12.0256 0.0343801 11.8804C-0.00226274 11.7353 -0.0097047 11.5842 0.0124862 11.4362C0.0346771 11.2881 0.0860588 11.1459 0.163649 11.0179C0.241239 10.8898 0.343492 10.7784 0.464472 10.6902L14.0326 0.512885C14.2285 0.366318 14.4665 0.287109 14.7112 0.287109C14.9558 0.287109 15.1938 0.366318 15.3897 0.512885L23.7608 6.78828V4.81072C23.7608 4.51035 23.8802 4.22228 24.0926 4.00988C24.305 3.79748 24.593 3.67816 24.8934 3.67816C25.1938 3.67816 25.4819 3.79748 25.6943 4.00988C25.9066 4.22228 26.026 4.51035 26.026 4.81072V8.48516L28.9657 10.6902C29.0845 10.7799 29.1845 10.8921 29.2599 11.0204C29.3353 11.1488 29.3847 11.2907 29.4053 11.4381C29.4259 11.5855 29.4172 11.7355 29.3798 11.8796C29.3424 12.0237 29.277 12.159 29.1873 12.2778C29.0976 12.3966 28.9854 12.4965 28.8571 12.5719C28.7288 12.6474 28.5868 12.6968 28.4394 12.7174C28.292 12.7379 28.142 12.7293 27.9979 12.6919C27.8538 12.6545 27.7185 12.5891 27.5997 12.4994L26.0122 11.3107V25.1614C26.0109 25.4598 25.8917 25.7455 25.6807 25.9563C25.4697 26.1672 25.1838 26.2861 24.8855 26.2871H18.1029ZM18.1029 14.9812C18.4028 14.9812 18.6904 15.1003 18.9024 15.3123C19.1144 15.5243 19.2335 15.8119 19.2335 16.1118V24.0269H23.7559V9.61477L14.7102 2.8312L5.66541 9.61477V24.0308H10.1878V16.1157C10.1878 15.9671 10.2171 15.82 10.2739 15.6828C10.3308 15.5456 10.4142 15.4209 10.5193 15.3159C10.6244 15.2109 10.7491 15.1276 10.8864 15.0709C11.0237 15.0141 11.1708 14.985 11.3194 14.9851L18.1029 14.9812Z" fill="white"/>
</svg>
