<svg width="169" height="60" viewBox="0 0 169 60" fill="none" xmlns="http://www.w3.org/2000/svg">
<path d="M6.52923 53.9059C4.52711 52.4091 2.90054 50.4672 1.77797 48.2335C0.655407 46.0006 0.0676642 43.5361 0.0611823 41.0366C-0.0664722 34.0136 0.0439854 26.986 0.0519224 19.9598C0.055891 16.6447 1.79212 14.339 4.37167 12.5671C9.86148 8.79168 19.4835 8.83533 24.9416 12.6392C27.8327 14.6525 29.3791 17.3697 29.2832 20.9777C29.2309 22.9567 29.2739 24.9383 29.2739 27.0026H15.7068V18.0609H10.2517V19.6641C10.2517 25.8432 10.2517 32.0228 10.2517 38.2024C10.2517 46.1825 14.042 51.5631 21.5551 54.1877C26.5872 55.951 32.0314 56.1686 37.1878 54.8127C37.6191 54.7042 38.0483 54.5865 38.4816 54.4893C38.5629 54.4714 38.6615 54.5323 38.8996 54.5971C36.7923 56.5794 34.2187 57.9961 31.4176 58.7164C28.752 59.4691 25.9979 59.8594 23.2285 59.8766C17.2731 59.8766 11.6867 57.9214 6.52923 53.9059ZM19.9472 47.1819C18.5807 46.3002 17.4688 45.0759 16.7227 43.6307C15.9767 42.1855 15.6228 40.5703 15.6949 38.9459C15.7432 36.9616 15.7042 34.9773 15.7042 32.8872H29.2448V41.8085H34.7247V40.2555C34.7247 33.9759 34.6076 27.6944 34.7551 21.4189C34.9324 13.9832 31.274 9.17266 24.8265 6.28356C19.297 3.80389 13.5234 3.6478 7.68143 5.09301C7.21116 5.20942 6.73957 5.31657 5.83342 5.53087C7.7487 3.62967 10.1018 2.22825 12.6861 1.44989C22.0135 -1.44449 30.6563 -0.0363261 38.4207 5.95285C40.4294 7.44119 42.0632 9.37843 43.1909 11.61C44.3186 13.8416 44.9093 16.3059 44.9159 18.8063C45.0442 25.8795 44.9298 32.9567 44.9159 40.0326C44.9099 43.2967 43.1598 45.5462 40.6404 47.2957C37.918 49.186 34.1671 50.1259 30.4102 50.1265C26.5634 50.1272 22.7099 49.1437 19.9472 47.1819Z" fill="white"/>
<path d="M69.3452 40.0161H65.1538V31.4573H57.3001V40.0161H53.0947V20.185H57.3001V27.9577H65.1538V20.185H69.3452V40.0161ZM86.5038 40.0161L85.0659 35.2955H77.8366L76.3986 40.0161H71.8679L78.8671 20.1036H84.0083L91.0346 40.0161H86.5038ZM84.0625 31.7688L82.6246 27.1574C82.534 26.8498 82.4123 26.4563 82.2582 25.977C82.1133 25.4887 81.9645 24.9958 81.8104 24.4985C81.6662 23.9921 81.5485 23.5535 81.4578 23.1827C81.3679 23.5535 81.2409 24.0147 81.0782 24.5663C80.9247 25.1089 80.7753 25.6243 80.6304 26.1126C80.4862 26.6011 80.3817 26.949 80.3189 27.1574L78.8942 31.7688H84.0625ZM99.3222 20.185C101.122 20.185 102.605 20.4021 103.772 20.8361C104.947 21.2702 105.819 21.9258 106.389 22.803C106.959 23.6801 107.244 24.7879 107.244 26.1262C107.244 27.0304 107.072 27.8214 106.728 28.5C106.385 29.178 105.932 29.7521 105.372 30.2224C104.811 30.6927 104.205 31.0769 103.554 31.3759L109.387 40.0161H104.721L99.9869 32.4064H97.7487V40.0161H93.544V20.185H99.3222ZM99.0239 23.6304H97.7487V28.9882H99.1053C100.498 28.9882 101.492 28.758 102.09 28.2963C102.695 27.8261 102.998 27.1388 102.998 26.2347C102.998 25.2943 102.672 24.6251 102.021 24.2272C101.379 23.8293 100.38 23.6304 99.0239 23.6304ZM111.883 20.185H118.054C120.695 20.185 122.694 20.5558 124.05 21.2973C125.407 22.0388 126.085 23.341 126.085 25.2038C126.085 25.9544 125.962 26.6329 125.718 27.2387C125.483 27.8446 125.14 28.342 124.688 28.7309C124.235 29.1191 123.684 29.3725 123.033 29.4902V29.6258C123.693 29.7614 124.29 29.9968 124.823 30.3309C125.356 30.6569 125.782 31.1358 126.098 31.7688C126.424 32.3932 126.587 33.2246 126.587 34.265C126.587 35.4675 126.292 36.4986 125.705 37.3572C125.117 38.2163 124.276 38.8764 123.182 39.3381C122.097 39.7899 120.804 40.0161 119.302 40.0161H111.883V20.185ZM116.088 28.039H118.529C119.75 28.039 120.596 27.8485 121.066 27.4689C121.536 27.08 121.771 26.5105 121.771 25.76C121.771 25.0004 121.491 24.4578 120.93 24.1323C120.379 23.7977 119.502 23.6304 118.298 23.6304H116.088V28.039ZM116.088 31.3759V36.5436H118.828C120.094 36.5436 120.975 36.2995 121.473 35.8114C121.97 35.3226 122.219 34.6671 122.219 33.8443C122.219 33.3562 122.11 32.9263 121.893 32.5559C121.676 32.1848 121.31 31.8958 120.795 31.6874C120.288 31.4798 119.588 31.3759 118.692 31.3759H116.088ZM148.547 30.0736C148.547 31.6015 148.357 32.9944 147.978 34.2511C147.597 35.4992 147.019 36.5754 146.242 37.4795C145.472 38.3837 144.496 39.0802 143.311 39.5683C142.127 40.0478 140.725 40.2873 139.106 40.2873C137.488 40.2873 136.086 40.0478 134.901 39.5683C133.717 39.0802 132.736 38.3837 131.958 37.4795C131.19 36.5754 130.615 35.4946 130.235 34.2379C129.855 32.9805 129.666 31.5836 129.666 30.0465C129.666 27.9934 130 26.2076 130.67 24.6884C131.348 23.1601 132.387 21.9755 133.789 21.1345C135.191 20.2935 136.972 19.873 139.133 19.873C141.285 19.873 143.053 20.2935 144.437 21.1345C145.83 21.9755 146.861 23.1601 147.53 24.6884C148.208 26.2168 148.547 28.0119 148.547 30.0736ZM134.074 30.0736C134.074 31.4573 134.246 32.6505 134.589 33.6545C134.942 34.6493 135.489 35.4179 136.231 35.9602C136.972 36.494 137.931 36.7606 139.106 36.7606C140.3 36.7606 141.268 36.494 142.009 35.9602C142.751 35.4179 143.289 34.6493 143.624 33.6545C143.967 32.6505 144.139 31.4573 144.139 30.0736C144.139 27.9934 143.75 26.357 142.972 25.1631C142.194 23.9695 140.915 23.3726 139.133 23.3726C137.949 23.3726 136.982 23.6439 136.231 24.1865C135.489 24.72 134.942 25.4887 134.589 26.4926C134.246 27.4874 134.074 28.6806 134.074 30.0736ZM158.435 20.185C160.235 20.185 161.718 20.4021 162.885 20.8361C164.06 21.2702 164.933 21.9258 165.503 22.803C166.072 23.6801 166.357 24.7879 166.357 26.1262C166.357 27.0304 166.185 27.8214 165.841 28.5C165.498 29.178 165.046 29.7521 164.486 30.2224C163.925 30.6927 163.319 31.0769 162.668 31.3759L168.5 40.0161H163.834L159.1 32.4064H156.862V40.0161H152.657V20.185H158.435ZM158.137 23.6304H156.862V28.9882H158.219C159.611 28.9882 160.606 28.758 161.203 28.2963C161.809 27.8261 162.112 27.1388 162.112 26.2347C162.112 25.2943 161.786 24.6251 161.135 24.2272C160.493 23.8293 159.494 23.6304 158.137 23.6304Z" fill="white"/>
</svg>
