<svg width="23" height="19" viewBox="0 0 23 19" fill="none" xmlns="http://www.w3.org/2000/svg">
<path d="M2.6685 4.17163C2.68228 4.03468 2.66382 3.8964 2.6146 3.76787C2.56537 3.63933 2.48674 3.52409 2.385 3.43138L0.2835 0.881009V0.499634H6.80625L11.8485 11.6428L16.281 0.499634H22.5V0.881009L20.7034 2.61463C20.6272 2.67341 20.5685 2.75176 20.5334 2.84132C20.4984 2.93088 20.4883 3.02829 20.5042 3.12313V15.8739C20.4883 15.9687 20.4984 16.0661 20.5334 16.1557C20.5685 16.2453 20.6272 16.3236 20.7034 16.3824L22.4584 18.1171V18.4996H13.6339V18.1183L15.4519 16.3408C15.6307 16.1608 15.6307 16.1079 15.6307 15.8334V5.52613L10.5773 18.4569H9.8955L4.01175 5.52613V14.1931C3.96338 14.5565 4.08375 14.9244 4.338 15.1876L6.70162 18.0766V18.4569H0V18.0766L2.3625 15.1876C2.4875 15.0572 2.58027 14.8993 2.6334 14.7267C2.68653 14.554 2.69855 14.3713 2.6685 14.1931V4.17163Z" fill="white"/>
</svg>
