<svg width="34" height="27" viewBox="0 0 34 27" fill="none" xmlns="http://www.w3.org/2000/svg">
<path d="M24.0392 25.1846H7.66964C7.44425 25.1846 7.2281 25.0951 7.06873 24.9357C6.90936 24.7764 6.81982 24.5602 6.81982 24.3348C6.81982 24.1094 6.90936 23.8933 7.06873 23.7339C7.2281 23.5746 7.44425 23.485 7.66964 23.485H23.6982L31.3699 16.0683C31.4537 15.985 31.5197 15.8856 31.5637 15.776C31.6077 15.6664 31.6289 15.549 31.6259 15.4309C31.6173 15.1738 31.5105 14.9297 31.3274 14.7489C31.2369 14.6648 31.1286 14.6021 31.0106 14.5653C30.8925 14.5285 30.7678 14.5187 30.6455 14.5365H30.5605C30.4359 14.5403 30.3161 14.5851 30.2195 14.6639L23.0163 19.0968C22.889 19.1774 22.742 19.2215 22.5913 19.2243H12.7866C12.5612 19.2243 12.3451 19.1347 12.1857 18.9753C12.0263 18.816 11.9368 18.5998 11.9368 18.3744C11.9368 18.1491 12.0263 17.9329 12.1857 17.7735C12.3451 17.6142 12.5612 17.5246 12.7866 17.5246H22.3343L29.3251 13.2129C29.6295 13.043 29.9614 12.9276 30.3055 12.8719H30.3905C30.7573 12.8256 31.1297 12.8586 31.4827 12.9685C31.8356 13.0785 32.1609 13.2629 32.4365 13.5092C32.7145 13.7553 32.9379 14.057 33.0921 14.3948C33.2464 14.7325 33.3281 15.0989 33.332 15.4702C33.3194 16.1776 33.0286 16.8517 32.5225 17.3462L24.6362 24.9297C24.5585 25.0096 24.4658 25.0733 24.3633 25.1171C24.2608 25.1608 24.1507 25.1838 24.0392 25.1846Z" fill="white"/>
<path d="M22.5477 18.7921C22.3627 18.7949 22.1823 18.735 22.0357 18.6221C21.9442 18.5565 21.8669 18.4731 21.8085 18.3768C21.7501 18.2805 21.7118 18.1734 21.6959 18.0619C21.68 17.9505 21.6869 17.8369 21.7161 17.7282C21.7453 17.6194 21.7962 17.5177 21.8657 17.4292C22.0111 17.2359 22.1 17.0061 22.1225 16.7652C22.1451 16.5244 22.1003 16.2821 21.9932 16.0652C21.8885 15.8488 21.7252 15.6662 21.5218 15.5381C21.3184 15.41 21.0831 15.3416 20.8428 15.3408L7.67062 15.3832C7.44523 15.3832 7.22908 15.2937 7.06971 15.1343C6.91034 14.975 6.8208 14.7588 6.8208 14.5334C6.8208 14.308 6.91034 14.0919 7.06971 13.9325C7.22908 13.7731 7.44523 13.6836 7.67062 13.6836H20.8417C21.4001 13.6815 21.9478 13.8362 22.4226 14.1301C22.8974 14.424 23.2801 14.8453 23.5271 15.3461C23.7752 15.8402 23.8787 16.3944 23.8259 16.9447C23.7731 17.4951 23.5661 18.0195 23.2286 18.4575C23.1468 18.5599 23.0433 18.6431 22.9256 18.7009C22.8079 18.7588 22.6788 18.7899 22.5477 18.7921Z" fill="white"/>
<path d="M7.67171 26.038H0.849816C0.624431 26.038 0.408277 25.9484 0.248906 25.7891C0.0895343 25.6297 0 25.4136 0 25.1882V13.2483C0 13.0229 0.0895343 12.8067 0.248906 12.6473C0.408277 12.488 0.624431 12.3984 0.849816 12.3984H7.66959C7.89497 12.3984 8.11113 12.488 8.2705 12.6473C8.42987 12.8067 8.5194 13.0229 8.5194 13.2483V25.185C8.51982 25.2967 8.49822 25.4073 8.45583 25.5107C8.41345 25.614 8.35111 25.708 8.27238 25.7872C8.19365 25.8664 8.10008 25.9293 7.99701 25.9724C7.89394 26.0154 7.7834 26.0377 7.67171 26.038ZM1.70494 24.3384H6.81977V14.0981H1.69963L1.70494 24.3384Z" fill="white"/>
<path d="M14.9171 11.9672H11.5051C11.2797 11.9672 11.0635 11.8777 10.9042 11.7183C10.7448 11.5589 10.6553 11.3428 10.6553 11.1174C10.6553 10.892 10.7448 10.6759 10.9042 10.5165C11.0635 10.3571 11.2797 10.2676 11.5051 10.2676H14.915C15.1404 10.2676 15.3565 10.3571 15.5159 10.5165C15.6753 10.6759 15.7648 10.892 15.7648 11.1174C15.7648 11.3428 15.6753 11.5589 15.5159 11.7183C15.3565 11.8777 15.1404 11.9672 14.915 11.9672H14.9171Z" fill="white"/>
<path d="M14.9171 8.55705H11.5051C11.2797 8.55705 11.0635 8.46752 10.9042 8.30815C10.7448 8.14878 10.6553 7.93262 10.6553 7.70724C10.6553 7.48185 10.7448 7.2657 10.9042 7.10633C11.0635 6.94696 11.2797 6.85742 11.5051 6.85742H14.915C15.1404 6.85742 15.3565 6.94696 15.5159 7.10633C15.6753 7.2657 15.7648 7.48185 15.7648 7.70724C15.7648 7.93262 15.6753 8.14878 15.5159 8.30815C15.3565 8.46752 15.1404 8.55705 14.915 8.55705H14.9171Z" fill="white"/>
<path d="M21.7374 11.9672H18.3254C18.1 11.9672 17.8839 11.8777 17.7245 11.7183C17.5651 11.5589 17.4756 11.3428 17.4756 11.1174C17.4756 10.892 17.5651 10.6759 17.7245 10.5165C17.8839 10.3571 18.1 10.2676 18.3254 10.2676H21.7353C21.9607 10.2676 22.1768 10.3571 22.3362 10.5165C22.4956 10.6759 22.5851 10.892 22.5851 11.1174C22.5851 11.3428 22.4956 11.5589 22.3362 11.7183C22.1768 11.8777 21.9607 11.9672 21.7353 11.9672H21.7374Z" fill="white"/>
<path d="M21.7374 8.55705H18.3254C18.1 8.55705 17.8839 8.46752 17.7245 8.30815C17.5651 8.14878 17.4756 7.93262 17.4756 7.70724C17.4756 7.48185 17.5651 7.2657 17.7245 7.10633C17.8839 6.94696 18.1 6.85742 18.3254 6.85742H21.7353C21.9607 6.85742 22.1768 6.94696 22.3362 7.10633C22.4956 7.2657 22.5851 7.48185 22.5851 7.70724C22.5851 7.93262 22.4956 8.14878 22.3362 8.30815C22.1768 8.46752 21.9607 8.55705 21.7353 8.55705H21.7374Z" fill="white"/>
<path d="M21.7374 5.15196H18.3254C18.0993 5.15196 17.8825 5.06215 17.7226 4.90228C17.5627 4.74241 17.4729 4.52558 17.4729 4.29949C17.4729 4.0734 17.5627 3.85657 17.7226 3.6967C17.8825 3.53683 18.0993 3.44702 18.3254 3.44702H21.7353C21.9613 3.44702 22.1782 3.53683 22.338 3.6967C22.4979 3.85657 22.5877 4.0734 22.5877 4.29949C22.5877 4.52558 22.4979 4.74241 22.338 4.90228C22.1782 5.06215 21.9613 5.15196 21.7353 5.15196H21.7374Z" fill="white"/>
<path d="M21.7377 1.73674H18.3256C18.1003 1.73674 17.8841 1.64721 17.7247 1.48783C17.5654 1.32846 17.4758 1.11231 17.4758 0.886924C17.4758 0.661539 17.5654 0.445385 17.7247 0.286014C17.8841 0.126643 18.1003 0.0371094 18.3256 0.0371094H21.7355C21.9609 0.0371094 22.1771 0.126643 22.3364 0.286014C22.4958 0.445385 22.5853 0.661539 22.5853 0.886924C22.5853 1.11231 22.4958 1.32846 22.3364 1.48783C22.1771 1.64721 21.9609 1.73674 21.7355 1.73674H21.7377Z" fill="white"/>
<path d="M28.5572 11.9672H25.1452C24.9198 11.9672 24.7037 11.8777 24.5443 11.7183C24.3849 11.5589 24.2954 11.3428 24.2954 11.1174C24.2954 10.892 24.3849 10.6759 24.5443 10.5165C24.7037 10.3571 24.9198 10.2676 25.1452 10.2676H28.5551C28.7805 10.2676 28.9966 10.3571 29.156 10.5165C29.3154 10.6759 29.4049 10.892 29.4049 11.1174C29.4049 11.3428 29.3154 11.5589 29.156 11.7183C28.9966 11.8777 28.7805 11.9672 28.5551 11.9672H28.5572Z" fill="white"/>
<path d="M28.5572 8.55705H25.1452C24.9198 8.55705 24.7037 8.46752 24.5443 8.30815C24.3849 8.14878 24.2954 7.93262 24.2954 7.70724C24.2954 7.48185 24.3849 7.2657 24.5443 7.10633C24.7037 6.94696 24.9198 6.85742 25.1452 6.85742H28.5551C28.7805 6.85742 28.9966 6.94696 29.156 7.10633C29.3154 7.2657 29.4049 7.48185 29.4049 7.70724C29.4049 7.93262 29.3154 8.14878 29.156 8.30815C28.9966 8.46752 28.7805 8.55705 28.5551 8.55705H28.5572Z" fill="white"/>
<path d="M28.5572 5.15196H25.1452C24.9191 5.15196 24.7023 5.06215 24.5424 4.90228C24.3825 4.74241 24.2927 4.52558 24.2927 4.29949C24.2927 4.0734 24.3825 3.85657 24.5424 3.6967C24.7023 3.53683 24.9191 3.44702 25.1452 3.44702H28.5551C28.7812 3.44702 28.998 3.53683 29.1579 3.6967C29.3177 3.85657 29.4076 4.0734 29.4076 4.29949C29.4076 4.52558 29.3177 4.74241 29.1579 4.90228C28.998 5.06215 28.7812 5.15196 28.5551 5.15196H28.5572Z" fill="white"/>
<path d="M4.25924 20.9221C4.09116 20.9221 3.92686 20.972 3.78711 21.0653C3.64736 21.1587 3.53843 21.2914 3.47411 21.4467C3.40979 21.602 3.39296 21.7729 3.42575 21.9377C3.45854 22.1026 3.53948 22.254 3.65833 22.3728C3.77718 22.4917 3.9286 22.5726 4.09345 22.6054C4.2583 22.6382 4.42917 22.6214 4.58445 22.5571C4.73973 22.4927 4.87246 22.3838 4.96584 22.2441C5.05922 22.1043 5.10906 21.94 5.10906 21.7719C5.10906 21.5466 5.01952 21.3304 4.86015 21.171C4.70078 21.0117 4.48462 20.9221 4.25924 20.9221Z" fill="white"/>
</svg>
