<svg width="27" height="8" viewBox="0 0 27 8" fill="none" xmlns="http://www.w3.org/2000/svg">
<path d="M3.5631 7.11772C4.50681 7.11651 5.41132 6.74081 6.07791 6.07289C6.74445 5.40499 7.11853 4.49971 7.11776 3.556C7.117 2.61245 6.7416 1.70763 6.07397 1.04078C5.40634 0.373919 4.50106 -0.00042402 3.55751 3.60437e-07C2.6138 0.000301787 1.70898 0.375403 1.04182 1.04286C0.374806 1.71018 0 2.61515 0 3.55886C0.000602814 4.5033 0.376306 5.40874 1.04452 6.07621C1.71272 6.74368 2.61862 7.11833 3.56306 7.11772H3.5631ZM13.499 7.2003C14.4426 7.19864 15.3468 6.82234 16.0129 6.15413C16.679 5.48607 17.0526 4.58064 17.0515 3.63724C17.0503 2.69368 16.6746 1.78918 16.0069 1.12259C15.3391 0.45604 14.434 0.0819681 13.4906 0.082431C12.547 0.0830338 11.6424 0.458286 10.9753 1.1256C10.3085 1.79292 9.93383 2.69789 9.93383 3.64144C9.93428 4.58619 10.3103 5.49209 10.979 6.15956C11.6476 6.82704 12.5543 7.20138 13.499 7.20034V7.2003ZM23.4496 7.28922C24.3925 7.28756 25.2961 6.9114 25.962 6.24362C26.6278 5.57584 27.0011 4.67117 27 3.72824C26.9988 2.7853 26.6234 1.88137 25.9559 1.21509C25.2886 0.548968 24.3841 0.175089 23.4411 0.175706C22.4982 0.176158 21.594 0.551259 20.9274 1.21814C20.2609 1.88515 19.8865 2.78951 19.8865 3.73248C19.8876 4.67499 20.2624 5.57873 20.9287 6.24547C21.595 6.91217 22.4985 7.2876 23.4412 7.28926L23.4496 7.28922Z" fill="white"/>
</svg>
