<svg width="29" height="29" viewBox="0 0 29 29" fill="none" xmlns="http://www.w3.org/2000/svg">
<path d="M14.175 7.93799C12.9414 7.93799 11.7356 8.30378 10.7099 8.98911C9.68423 9.67444 8.88482 10.6485 8.41275 11.7882C7.94069 12.9279 7.81718 14.1819 8.05783 15.3918C8.29849 16.6016 8.89251 17.713 9.76477 18.5852C10.637 19.4575 11.7484 20.0515 12.9582 20.2921C14.1681 20.5328 15.4221 20.4093 16.5618 19.9372C17.7015 19.4652 18.6755 18.6657 19.3609 17.6401C20.0462 16.6144 20.412 15.4086 20.412 14.175C20.4078 12.5221 19.7493 10.9382 18.5805 9.76943C17.4118 8.60068 15.8278 7.94221 14.175 7.93799ZM14.175 17.846C13.4489 17.846 12.7392 17.6307 12.1355 17.2273C11.5318 16.8239 11.0613 16.2506 10.7834 15.5798C10.5056 14.909 10.4329 14.1709 10.5745 13.4588C10.7162 12.7467 11.0658 12.0926 11.5792 11.5792C12.0926 11.0658 12.7467 10.7162 13.4588 10.5745C14.1709 10.4329 14.909 10.5056 15.5798 10.7834C16.2506 11.0613 16.8239 11.5318 17.2273 12.1355C17.6307 12.7392 17.846 13.4489 17.846 14.175C17.8464 14.6572 17.7517 15.1347 17.5674 15.5803C17.383 16.0259 17.1126 16.4307 16.7717 16.7717C16.4307 17.1126 16.0259 17.383 15.5803 17.5674C15.1347 17.7517 14.6572 17.8464 14.175 17.846Z" fill="white"/>
<path d="M14.1751 6C14.3439 6.0012 14.5113 5.96883 14.6675 5.90478C14.8237 5.84072 14.9656 5.74626 15.085 5.62689C15.2044 5.50751 15.2988 5.3656 15.3629 5.2094C15.4269 5.05319 15.4593 4.88582 15.4581 4.717V1.283C15.4581 0.942727 15.3229 0.616391 15.0823 0.375782C14.8417 0.135173 14.5154 0 14.1751 0C13.8348 0 13.5085 0.135173 13.2679 0.375782C13.0273 0.616391 12.8921 0.942727 12.8921 1.283V4.745C12.8938 4.91169 12.9283 5.07641 12.9938 5.22973C13.0592 5.38305 13.1542 5.52197 13.2734 5.63854C13.3925 5.7551 13.5335 5.84703 13.6882 5.90905C13.843 5.97107 14.0084 6.00198 14.1751 6Z" fill="white"/>
<path d="M6.59588 8.41506C6.8334 8.65739 7.15661 8.79673 7.49588 8.80306C7.66495 8.80678 7.83285 8.77405 7.98815 8.7071C8.14344 8.64014 8.28251 8.54054 8.39588 8.41506C8.51635 8.29909 8.61218 8.16001 8.67764 8.00613C8.74309 7.85226 8.77683 7.68677 8.77683 7.51956C8.77683 7.35234 8.74309 7.18684 8.67764 7.03297C8.61218 6.8791 8.51635 6.74002 8.39588 6.62405L5.94288 4.17705C5.70485 3.93902 5.38201 3.8053 5.04538 3.8053C4.70875 3.8053 4.38591 3.93902 4.14788 4.17705C3.90985 4.41509 3.77612 4.73793 3.77612 5.07456C3.77612 5.41118 3.90985 5.73402 4.14788 5.97205L6.59588 8.41506Z" fill="white"/>
<path d="M6 14.175C6.0012 14.006 5.96877 13.8385 5.90459 13.6822C5.84041 13.5258 5.74577 13.3838 5.62618 13.2644C5.50659 13.145 5.36444 13.0506 5.20801 12.9867C5.05158 12.9227 4.88399 12.8906 4.715 12.892H1.283C0.942727 12.892 0.616391 13.0272 0.375782 13.2678C0.135173 13.5084 0 13.8347 0 14.175C0 14.5153 0.135173 14.8416 0.375782 15.0822C0.616391 15.3228 0.942727 15.458 1.283 15.458H4.745C4.91169 15.4563 5.07641 15.4218 5.22973 15.3563C5.38305 15.2909 5.52197 15.1959 5.63854 15.0767C5.7551 14.9576 5.84703 14.8166 5.90905 14.6619C5.97107 14.5071 6.00198 14.3417 6 14.175Z" fill="white"/>
<path d="M6.59602 19.9341L4.14902 22.3811C4.02855 22.497 3.93272 22.6361 3.86726 22.79C3.8018 22.9438 3.76807 23.1093 3.76807 23.2766C3.76807 23.4438 3.8018 23.6093 3.86726 23.7631C3.93272 23.917 4.02855 24.0561 4.14902 24.1721C4.38654 24.4144 4.70975 24.5537 5.04902 24.5601C5.21809 24.5638 5.38598 24.531 5.54128 24.4641C5.69658 24.3971 5.83564 24.2975 5.94902 24.1721L8.39602 21.7251C8.51648 21.6091 8.61232 21.47 8.67777 21.3161C8.74323 21.1623 8.77697 20.9968 8.77697 20.8296C8.77697 20.6623 8.74323 20.4968 8.67777 20.343C8.61232 20.1891 8.51648 20.05 8.39602 19.9341C8.15395 19.7018 7.83148 19.5721 7.49602 19.5721C7.16056 19.5721 6.83808 19.7018 6.59602 19.9341Z" fill="white"/>
<path d="M14.1751 22.352C14.0063 22.3508 13.8389 22.3832 13.6827 22.4472C13.5265 22.5113 13.3846 22.6058 13.2652 22.7251C13.1459 22.8445 13.0514 22.9864 12.9873 23.1426C12.9233 23.2988 12.8909 23.4662 12.8921 23.635V27.097C12.8921 27.4373 13.0273 27.7636 13.2679 28.0042C13.5085 28.2448 13.8349 28.38 14.1751 28.38C14.5154 28.38 14.8417 28.2448 15.0823 28.0042C15.3229 27.7636 15.4581 27.4373 15.4581 27.097V23.605C15.4562 23.4385 15.4214 23.274 15.3559 23.1209C15.2903 22.9678 15.1953 22.8291 15.0762 22.7128C14.957 22.5964 14.8161 22.5047 14.6615 22.4428C14.5069 22.3809 14.3416 22.35 14.1751 22.352Z" fill="white"/>
<path d="M21.7549 19.935C21.639 19.8146 21.4999 19.7187 21.346 19.6533C21.1921 19.5878 21.0267 19.5541 20.8594 19.5541C20.6922 19.5541 20.5267 19.5878 20.3729 19.6533C20.219 19.7187 20.0799 19.8146 19.9639 19.935C19.7273 20.173 19.5945 20.4949 19.5945 20.8305C19.5945 21.1661 19.7273 21.4881 19.9639 21.726L22.4109 24.173C22.6485 24.4154 22.9717 24.5547 23.3109 24.561C23.48 24.5647 23.6479 24.532 23.8032 24.4651C23.9585 24.3981 24.0976 24.2985 24.2109 24.173C24.3314 24.0571 24.4272 23.918 24.4927 23.7641C24.5581 23.6102 24.5919 23.4447 24.5919 23.2775C24.5919 23.1103 24.5581 22.9448 24.4927 22.7909C24.4272 22.6371 24.3314 22.498 24.2109 22.382L21.7549 19.935Z" fill="white"/>
<path d="M27.067 12.892H23.605C23.2647 12.892 22.9384 13.0271 22.6978 13.2677C22.4572 13.5084 22.322 13.8347 22.322 14.175C22.322 14.5152 22.4572 14.8416 22.6978 15.0822C22.9384 15.3228 23.2647 15.458 23.605 15.458H27.067C27.4073 15.458 27.7336 15.3228 27.9742 15.0822C28.2148 14.8416 28.35 14.5152 28.35 14.175C28.35 13.8347 28.2148 13.5084 27.9742 13.2677C27.7336 13.0271 27.4073 12.892 27.067 12.892Z" fill="white"/>
<path d="M20.859 8.77406C21.028 8.77778 21.1959 8.74505 21.3512 8.6781C21.5065 8.61115 21.6456 8.51154 21.759 8.38606L24.202 5.94306C24.4395 5.70555 24.5729 5.38343 24.5729 5.04756C24.5729 4.71168 24.4395 4.38956 24.202 4.15206C23.9645 3.91455 23.6423 3.78113 23.3065 3.78113C22.9706 3.78113 22.6485 3.91455 22.411 4.15206L19.964 6.59906C19.8435 6.71502 19.7477 6.85411 19.6822 7.00798C19.6167 7.16185 19.583 7.32734 19.583 7.49456C19.583 7.66177 19.6167 7.82727 19.6822 7.98114C19.7477 8.13501 19.8435 8.27409 19.964 8.39006C20.0771 8.51417 20.2156 8.61265 20.3699 8.67888C20.5243 8.74511 20.691 8.77756 20.859 8.77406Z" fill="white"/>
</svg>
