<svg width="25" height="22" viewBox="0 0 25 22" fill="none" xmlns="http://www.w3.org/2000/svg">
<path d="M8.53356 11.8326L18.3664 20.4842C18.48 20.5848 18.6179 20.6541 18.7664 20.6853C18.9149 20.7165 19.069 20.7086 19.2135 20.6622C19.358 20.6159 19.488 20.5328 19.5907 20.421C19.6934 20.3092 19.7652 20.1727 19.7992 20.0248L23.9117 2.06541C23.9462 1.91075 23.938 1.74962 23.8881 1.59923C23.8381 1.44884 23.7483 1.31484 23.6281 1.21153C23.508 1.10821 23.362 1.03947 23.2058 1.01264C23.0497 0.985803 22.8891 1.00188 22.7414 1.05916L2.55075 8.98885C1.74137 9.30604 1.85075 10.4873 2.70388 10.6623L8.53356 11.8326Z" stroke="white" stroke-width="2" stroke-linecap="round" stroke-linejoin="round"/>
<path d="M8.5332 11.8326L23.4191 1.08105" stroke="white" stroke-width="2" stroke-linecap="round" stroke-linejoin="round"/>
<path d="M13.4441 16.1533L10.0316 19.5658C9.9099 19.6894 9.75415 19.7741 9.58419 19.809C9.41423 19.8439 9.23773 19.8275 9.07713 19.7618C8.91652 19.6962 8.77906 19.5842 8.68221 19.4403C8.58536 19.2963 8.53349 19.1268 8.5332 18.9533V11.833" stroke="white" stroke-width="2" stroke-linecap="round" stroke-linejoin="round"/>
</svg>
