<svg width="14" height="14" viewBox="0 0 14 14" fill="none" xmlns="http://www.w3.org/2000/svg">
<path d="M7.18202 10.499H6.67985C6.36023 10.499 6.10156 10.2404 6.10156 9.92075L6.10167 6.66423C6.10167 6.34461 6.36035 6.08594 6.67996 6.08594H7.18213C7.50175 6.08594 7.76042 6.34462 7.76042 6.66423V9.90553C7.76031 10.2403 7.50163 10.499 7.18202 10.499Z" fill="#7A7498"/>
<path d="M7.18202 5.32672H6.67985C6.36023 5.32672 6.10156 5.06804 6.10156 4.74843V4.24626C6.10156 3.92664 6.36024 3.66797 6.67985 3.66797H7.18202C7.50164 3.66797 7.76031 3.92665 7.76031 4.24626V4.74843C7.76031 5.06805 7.50163 5.32672 7.18202 5.32672Z" fill="#7A7498"/>
<path d="M7 14C3.13478 14 0 10.8652 0 7C0 3.13478 3.13478 0 7 0C10.8652 0 14 3.13478 14 7C14 10.8652 10.8652 14 7 14ZM7 1.21739C3.80435 1.21739 1.21739 3.80432 1.21739 7C1.21739 10.1957 3.80432 12.7826 7 12.7826C10.1957 12.7826 12.7826 10.1957 12.7826 7C12.7826 3.80432 10.1957 1.21739 7 1.21739Z" fill="#7A7498"/>
</svg>
