<svg width="25" height="22" viewBox="0 0 25 22" fill="none" xmlns="http://www.w3.org/2000/svg">
<path d="M10.9059 5.3754C10.9059 2.96915 12.9293 0.967585 15.3356 1.0004C16.1782 1.01013 17.0002 1.26303 17.7026 1.7287C18.4049 2.19437 18.9579 2.853 19.2949 3.6254H23.1559L19.6231 7.15821C19.3951 10.707 17.8241 14.0357 15.2297 16.4676C12.6352 18.8996 9.21193 20.2522 5.65586 20.2504C2.15586 20.2504 1.28086 18.9379 1.28086 18.9379C1.28086 18.9379 4.78086 17.6254 6.53086 15.0004C6.53086 15.0004 -0.469136 11.5004 1.28086 1.8754C1.28086 1.8754 5.65586 6.2504 10.9059 7.1254V5.3754Z" stroke="white" stroke-width="2" stroke-linecap="round" stroke-linejoin="round"/>
</svg>
