<svg width="26" height="25" viewBox="0 0 26 25" fill="none" xmlns="http://www.w3.org/2000/svg">
<path d="M13.8444 2.32587H13.9422L14.0327 2.28906L18.429 0.501937C18.4358 0.506851 18.4499 0.520309 18.4598 0.55081L18.9231 1.98006L19.0352 2.32587H19.3988H21.3602C22.232 2.32587 23.0341 3.13853 23.0341 4.26525V5.48494V5.98494H23.5341C24.4059 5.98494 25.208 6.7976 25.208 7.92433V21.9508C25.208 23.4147 24.163 24.5 22.9906 24.5H3.4254C2.25306 24.5 1.20801 23.4147 1.20801 21.9508V4.26525C1.20801 3.13853 2.01013 2.32587 2.88192 2.32587H13.8444ZM4.85692 5.98494H4.96021L5.05505 5.94402C5.07534 5.93526 5.09338 5.92593 5.10907 5.91688L11.0322 3.50874L10.8439 2.54556H2.88192C1.95317 2.54556 1.29496 3.37156 1.29496 4.26525C1.29496 5.15894 1.95317 5.98494 2.88192 5.98494H4.7542H4.85692ZM16.8046 1.36265L16.8047 1.36326L13.8998 2.54556H13.8945L13.8039 2.58239L7.80446 5.02177L7.99279 5.98494H19.4395H20.127L19.9152 5.33088L19.1609 3.00197L19.1609 3.00188L18.5837 1.21878L18.4181 0.707077L17.9198 0.909531L16.8046 1.36265ZM19.7933 2.54556H19.1058L19.3177 3.19965L20.1079 5.63903L20.2199 5.98494H20.5835H22.4471H22.9471V5.48494V4.26525C22.9471 3.37156 22.2889 2.54556 21.3602 2.54556H19.7933ZM2.06871 5.94776L1.29496 5.44154V6.36617V21.9508C1.29496 23.1818 2.19675 24.2803 3.4254 24.2803H22.9906C24.2199 24.2803 25.1211 23.1817 25.1211 21.9508V17.6819V17.1819H24.6211H22.4471C21.5753 17.1819 20.7732 16.3692 20.7732 15.2425C20.7732 14.1157 21.5753 13.3031 22.4471 13.3031H24.6211H25.1211V12.8031V7.92433C25.1211 7.03064 24.4628 6.20464 23.5341 6.20464H2.88192C2.59536 6.20464 2.32058 6.11255 2.06871 5.94776ZM24.6211 16.9622H25.1211V16.4622V14.0228V13.5228H24.6211H22.4471C21.5184 13.5228 20.8602 14.3488 20.8602 15.2425C20.8602 16.1362 21.5184 16.9622 22.4471 16.9622H24.6211ZM22.9471 15.1326H23.0341V15.3523H22.9471V15.1326Z" stroke="white"/>
</svg>
